<?xml version="1.0" encoding="utf-8"?>
<!-- Generator: Adobe Illustrator 19.0.0, SVG Export Plug-In . SVG Version: 6.00 Build 0)  -->
<svg version="1.1" id="Layer_1" xmlns="http://www.w3.org/2000/svg" xmlns:xlink="http://www.w3.org/1999/xlink" x="0px" y="0px"
	 viewBox="0 0 704.419 1258.651" enable-background="new 0 0 704.419 1258.651" xml:space="preserve">
<path fill="#4963A6" d="M84.964,1224.391c1.953,5.859,5.859,8.789,12.266,8.789c12.734,0,21.562-6.836,25-19.57
	c0.977-3.438,0.977-6.328,0-8.789l-0.977-4.922c-14.727-39.609-22.07-98.32-23.047-175.625c-0.516-83.672,7.852-156.094,25-217.266
	c22.109-77.812,55.977-146.797,101.094-205.516c22.57-31.328,71.641-84.18,146.711-159.016c62.352-61.641,97.664-108.625,107-140.43
	c14.727-52.852,2.93-79.258-35.352-79.258c-39.727,0-82.422,23.992-126.602,71.922c-92.734,100.305-171.25,263.234-235.047,487.844
	C56.956,869.156,48.636,963.57,56.956,1067.32c5.899,65.078,14.258,115.469,26.016,152.148L84.964,1224.391z"/>
<path fill="#4963A6" d="M397.542,975.328c-5.898,7.344-11.289,11.25-15.234,11.25c-8.828,0-12.266-4.414-9.805-13.711
	c0.508-0.469,0.977-1.445,1.953-2.422l2.461-4.922c59.883-100.773,95.195-171.25,106.484-210.859
	c8.828-31.836,12.773-59.219,11.289-83.203c-43.68,44.062-78.008,74.375-103.555,90.508c-25.516,16.172-50.039,24.492-74.57,24.492
	c-49.062,0-68.203-19.57-56.914-58.711c10.781-38.164,43.164-71.953,97.148-101.297c105.977-56.289,174.687-140.922,206.094-251.984
	c19.141-67.547,17.656-129.695-4.414-185.945c-13.75-37.172-45.625-87.109-96.68-149.711l-2.461-3.914
	c-1.953-2.461-2.422-5.906-0.977-9.797c1.992-7.828,7.383-12.234,15.703-12.234c3.945,0,6.406,0.984,7.375,2.422l4.422,2.453
	c0,0,0,0.516,0.977,1.5c71.172,61.633,118.242,130.141,140.82,205c25.031,84.648,20.625,185.469-12.734,302.414
	c-33.398,118.398-65.273,208.438-95.703,269.609c-26.484,53.32-66.719,113.008-120.234,178.086L397.542,975.328z"/>
</svg>
